# xmcd
#
# Track frame offsets: 
#        150
#        10114
#        17222
#        22811
#        28429
#        33245
#        40109
#        46010
#        52368
#        57925
#        62525
#        70997
#        80852
#        95558
#        106610
#        116074
#        125607
#        137681
#
# Disc length: 1987 seconds
#
# Revision: 0
# Processed by: cddbd v1.5.2PL0 Copyright (c) Steve Scherf et al.
# Submitted via: ExactAudioCopy v0.95b3
#
DISCID=f407c112
DTITLE=Willie Nelson - Rarities. Vol. One
DYEAR=2010
DGENRE=Country
TTITLE0=If I Had Only Known
TTITLE1=Both Ends Of The Candle
TTITLE2=Darkness On The Face Of The Earth
TTITLE3=The Ghost
TTITLE4=In Just A Million Years
TTITLE5=I've Seen All This World I Care To See
TTITLE6=Just Now Falling
TTITLE7=Undoing The Right
TTITLE8=Waiting Time
TTITLE9=Where My House Lives
TTITLE10=How Long Is Forever
TTITLE11=Let's Pretend We're Strangers
TTITLE12=So Much To Do
TTITLE13=Who Do I Khow In Dallas
TTITLE14=Healing Hands Of Time
TTITLE15=Man With The Blues
TTITLE16=Happiness Lives Next Door
TTITLE17=Night Life
EXTD=
EXTT0=
EXTT1=
EXTT2=
EXTT3=
EXTT4=
EXTT5=
EXTT6=
EXTT7=
EXTT8=
EXTT9=
EXTT10=
EXTT11=
EXTT12=
EXTT13=
EXTT14=
EXTT15=
EXTT16=
EXTT17=
PLAYORDER=
